<svg xmlns="http://www.w3.org/2000/svg" width="223" height="26" viewBox="0 0 223 26">
    <g fill="#BB0C43" fill-rule="evenodd">
        <path d="M14.89 19.865H9.319L5.646.635h5.272l3.972 19.23zm-14.89 0L3.947 6.467l2.574 13.398H0zm22.426-9.553c0 4.888 1.55 8.932 6.171 9.726V.512c-4.622.819-6.17 4.838-6.17 9.8zm14.59-3.845C36.693 3.489 34.719.859 31.32.512v7.716l5.697-1.761zm0 7.666l-5.696-1.761v7.617c3.423-.348 5.372-2.854 5.697-5.856zm1.433 2.01c0 2.357 1.999 3.722 4.897 3.722h1.074v-7.469h-1.074c-2.898 0-4.897 1.39-4.897 3.747zm5.97-4.615v-5.31c-2.997.124-4.796 1.737-5.445 3.623l5.446 1.687zm7.546 8.337v-9.478c0-3.077-2.574-4.169-4.672-4.169h-.5v13.647h5.172zm3.081 0h5.196V6.467h-5.196v13.398zm12.691 0v-9.23c0-3.077-2.573-4.168-4.671-4.168h-.5v13.398h5.171zm7.42 0v-9.23c0-3.077-2.573-4.168-4.671-4.168h-.5v13.398h5.171zm16.497-6.65c0-3.697-2.148-6.748-5.896-6.748v13.398c3.448 0 5.896-2.928 5.896-6.65zM78.24 25.447h5.196V6.467H78.24v18.98zm28.638-18.98h-5.196v13.398h5.197V6.467zm-12.69 0v9.23c0 3.076 2.572 4.168 4.67 4.168h.5V6.467h-5.17zm15.297 9.825c.65 1.761 2.473 3.374 5.072 3.82V6.219c-2.249.1-5.147 1.985-5.147 4.243 0 2.084.9 3.474 3.573 4.69l-3.498 1.14zm12.492-6.253c-.65-1.761-2.499-3.374-5.097-3.82v13.894c2.249-.1 5.172-1.985 5.172-4.243 0-2.084-.9-3.474-3.573-4.69l3.498-1.14zM130.21 19.874c5.147 0 5.347 0 5.597-.025V.645h-5.596v19.229zm14.191-9.925c0-4.615-1.974-7.766-5.871-8.857 0 3.052.025 14.018 0 18.31 4.147-1.24 5.871-4.912 5.871-9.453zm2.781 9.925h5.197V6.476h-5.197v13.398zm-.25-17.12c0 1.414 1.275 2.754 2.824 2.754 1.574 0 2.873-1.34 2.873-2.754S151.329 0 149.756 0c-1.55 0-2.823 1.34-2.823 2.754zm7.954 3.722l3.297 13.398h4.672l-2.698-13.398h-5.271zm12.966 0h-4.322l-.55 2.406 1.424 7.27 3.448-9.676zm2.506 13.398h5.197V6.476h-5.197v13.398zm-.25-17.12c0 1.414 1.275 2.754 2.824 2.754 1.574 0 2.873-1.34 2.873-2.754S174.505 0 172.932 0c-1.55 0-2.823 1.34-2.823 2.754zm8.228 10.371c0 3.697 2.149 6.749 5.871 6.749V6.476c-3.422 0-5.87 2.928-5.87 6.65zM191.752.645h-5.196v19.229h5.196V.645zm15.773 11.488c-.25-3.474-1.949-5.484-5.297-5.905v7.493l5.297-1.588zm-13.241.992c0 3.573 1.699 6.55 5.621 6.997V6.228c-3.922.52-5.621 3.746-5.621 6.897zm13.116 3.3l-5.172-1.662.025 5.36c2.973-.348 4.472-1.763 5.147-3.698zm2.107-3.3c0 3.697 2.148 6.749 5.87 6.749V6.476c-3.422 0-5.87 2.928-5.87 6.65zM222.923.645h-5.197v19.229h5.197V.645z"/>
    </g>
</svg>
