<svg width="375" height="446" viewBox="0 0 375 446" xmlns="http://www.w3.org/2000/svg"><title>title-mobile</title><g fill="none" fill-rule="evenodd"><path d="M186.084 19L182.736.1h6.102c2.214.027 5.076 1.674 5.643 4.86l.648 3.645c.054.324.081.648.081.945 0 2.511-1.944 3.834-3.915 3.915h-1.323l.972 5.535h-4.86zm3.024-10.395h1.161l-.648-3.645h-1.161l.648 3.645zM199.099 19L195.751.1h6.102c2.187.027 4.995 1.539 5.562 4.455l.486 2.7c.027.162.054.324.054.486 0 .729-.351 1.377-1.296 1.944 1.323.675 2.106 1.485 2.268 2.43l.486 2.727 1.026 1.35c.054.27.081.513.081.729 0 1.431-.891 2.079-1.863 2.079h-1.242c-1.134 0-2.457-.891-2.808-2.808l-.702-4.077h-1.161L203.959 19h-4.86zm3.024-10.395h1.161l-.648-3.645h-1.161l.648 3.645zM217.244 19c-2.241 0-5.157-1.647-5.724-4.86l-1.62-9.18a5.829 5.829 0 0 1-.081-.945c0-2.592 2.079-3.915 4.077-3.915h1.08c2.241 0 5.157 1.647 5.724 4.86l1.62 9.18c.054.324.081.648.081.945 0 2.592-2.079 3.915-4.077 3.915h-1.08zm-.864-4.86h1.08l-1.62-9.18h-1.08l1.62 9.18zM230.124 19h1.08c1.998 0 4.077-1.323 4.077-3.915 0-.297-.027-.621-.081-.945l-.378-2.16h.54l-.729-4.05h-5.94l.729 4.05h.54l.378 2.16h-1.08l-1.62-9.18h1.08l.378 2.16h4.86l-.378-2.16c-.567-3.213-3.483-4.86-5.724-4.86h-1.08c-1.998 0-4.077 1.323-4.077 3.915 0 .297.027.621.081.945l1.62 9.18c.567 3.213 3.483 4.86 5.724 4.86zm8.614 0L235.39.1h6.102c2.187.027 4.995 1.539 5.562 4.455l.486 2.7c.027.162.054.324.054.486 0 .729-.351 1.377-1.296 1.944 1.323.675 2.106 1.485 2.268 2.43l.486 2.727 1.026 1.35c.054.27.081.513.081.729 0 1.431-.891 2.079-1.863 2.079h-1.242c-1.134 0-2.457-.891-2.808-2.808l-.702-4.077h-1.161L243.598 19h-4.86zm3.024-10.395h1.161l-.648-3.645h-1.161l.648 3.645zM252.293 19L248.945.1h10.233l.864 4.86h-5.373l.432 2.376h4.32l.756 4.401h-4.32l.432 2.403h5.373l.864 4.86h-10.233zm16.849 0c-2.241 0-5.157-1.647-5.724-4.86l-.243-1.35h4.86l.243 1.35h1.08c-.675-3.78-6.453-1.944-7.695-9.18a5.829 5.829 0 0 1-.081-.945c0-2.592 2.079-3.915 4.077-3.915h1.08c2.241 0 5.157 1.647 5.724 4.86l.27 1.539h-4.86l-.27-1.539h-1.08c.594 3.402 6.453 2.16 7.695 9.18.054.324.081.648.081.945 0 2.592-2.079 3.915-4.077 3.915h-1.08zm12.367 0c-2.241 0-5.157-1.647-5.724-4.86l-.243-1.35h4.86l.243 1.35h1.08c-.675-3.78-6.453-1.944-7.695-9.18a5.829 5.829 0 0 1-.081-.945c0-2.592 2.079-3.915 4.077-3.915h1.08c2.241 0 5.157 1.647 5.724 4.86l.27 1.539h-4.86l-.27-1.539h-1.08c.594 3.402 6.453 2.16 7.695 9.18.054.324.081.648.081.945 0 2.592-2.079 3.915-4.077 3.915h-1.08zm8.101 0L286.262.1h4.86L294.47 19h-4.86zm9.667 0L293.067.1h5.13l3.645 13.635L300.681.1h5.13l.486 18.9h-7.02zm11.827 0L307.756.1h10.233l.864 4.86h-5.373l.432 2.376h4.32l.756 4.401h-4.32l.432 2.403h5.373l.864 4.86h-10.233zm16.849 0c-2.241 0-5.157-1.647-5.724-4.86l-.243-1.35h4.86l.243 1.35h1.08c-.675-3.78-6.453-1.944-7.695-9.18a5.829 5.829 0 0 1-.081-.945c0-2.592 2.079-3.915 4.077-3.915h1.08c2.241 0 5.157 1.647 5.724 4.86l.27 1.539h-4.86l-.27-1.539h-1.08c.594 3.402 6.453 2.16 7.695 9.18.054.324.081.648.081.945 0 2.592-2.079 3.915-4.077 3.915h-1.08zm10.045 4.428c3.267 0 3.834-1.809 3.834-3.213 0-.486-.054-.918-.108-1.215l-.864-4.86h-5.13l.864 4.86h2.43c.054.351.108.675.108.945 0 .648-.297 1.053-1.566 1.053l.432 2.43zM164.875 48l6.21-18.9h7.02l-.486 18.9h-5.13l.323-3.78h-1.782L170.005 48h-5.13zm7.29-8.1h1.025l.46-5.535-1.486 5.535zm7.29 8.1h4.86l1.782-10.098.784 10.098h5.238l3.347-18.9h-4.86l-1.322 7.506-.567-7.506h-5.913L179.455 48zm17.578 0l2.485-14.04h-2.835l.864-4.86h10.53l-.864 4.86h-2.835L201.893 48h-4.86zm9.776 0l3.347-18.9h4.86L211.67 48h-4.86zm12.07 0c-1.998 0-4.077-1.323-4.077-3.915 0-.297.026-.621.08-.945l1.62-9.18c.567-3.213 3.483-4.86 5.724-4.86h1.08c1.998 0 4.077 1.323 4.077 3.915 0 .297-.026.621-.08.945l-.379 2.16h-4.86l.379-2.16h-1.08l-1.62 9.18h1.08l.377-2.16h4.86l-.377 2.16c-.567 3.213-3.483 4.86-5.725 4.86h-1.08zm12.745 0c-1.999 0-4.077-1.323-4.077-3.915 0-.297.026-.621.08-.945l1.62-9.18c.567-3.213 3.483-4.86 5.724-4.86h1.08c1.999 0 4.078 1.323 4.078 3.915 0 .297-.028.621-.081.945l-1.62 9.18c-.567 3.213-3.483 4.86-5.725 4.86h-1.08zm.864-4.86h1.08l1.62-9.18h-1.08l-1.62 9.18zm7.425 4.86l3.349-18.9h6.965l-.594 9.774 2.89-9.774h6.939L256.113 48h-4.86l2.08-11.745L249.767 48h-3.51l.594-11.745L244.774 48h-4.86zm18.82 0l3.349-18.9h6.966l-.594 9.774 2.888-9.774h6.94L274.933 48h-4.86l2.08-11.745L268.587 48h-3.51l.595-11.745L263.593 48h-4.86zm23.41 0c-1.997 0-4.076-1.323-4.076-3.915 0-.297.026-.621.08-.945l2.485-14.04h4.86l-2.485 14.04h1.08l2.485-14.04h4.86l-2.485 14.04c-.567 3.213-3.483 4.86-5.724 4.86h-1.08zm8.29 0l3.349-18.9h5.913l.567 7.506 1.322-7.506h4.86L303.096 48h-5.238l-.783-10.098L295.294 48h-4.86zm15.284 0l3.348-18.9h4.86L310.576 48h-4.86zm12.096 0c-1.998 0-4.077-1.323-4.077-3.915 0-.297.028-.621.082-.945l.243-1.35h4.86l-.243 1.35h1.08c.026-.189.054-.378.054-.54 0-2.781-4.699-1.971-4.699-6.858 0-.513.082-1.107.19-1.782.567-3.213 3.483-4.86 5.724-4.86h1.08c1.997 0 4.076 1.323 4.076 3.915 0 .297-.026.621-.08.945l-.27 1.539h-4.86l.27-1.539h-1.08c-.028.162-.028.297-.028.432 0 2.592 4.644 2.16 4.644 7.047 0 .486-.053 1.053-.161 1.701-.567 3.213-3.483 4.86-5.724 4.86h-1.08zm9.992 0l2.483-14.04h-2.834l.863-4.86h10.53l-.863 4.86h-2.835L332.663 48h-4.86zm14.121 0c-1.998 0-4.077-1.323-4.077-3.915 0-.297.028-.621.082-.945l.243-1.35h4.86l-.243 1.35h1.08c.026-.189.054-.378.054-.54 0-2.781-4.699-1.971-4.699-6.858 0-.513.082-1.107.19-1.782.567-3.213 3.483-4.86 5.724-4.86h1.08c1.997 0 4.076 1.323 4.076 3.915 0 .297-.026.621-.08.945l-.27 1.539h-4.86l.27-1.539h-1.08c-.028.162-.028.297-.028.432 0 2.592 4.644 2.16 4.644 7.047 0 .486-.053 1.053-.161 1.701-.567 3.213-3.483 4.86-5.724 4.86h-1.08zm8.345 4.428l.431-2.43c1.81 0 1.971-.837 2.16-1.998h-2.43l.864-4.86h5.13l-.863 4.86c-.19 1.134-.892 4.428-5.292 4.428zM221.74 77l-3.349-18.9h6.102c2.188.027 4.995 1.539 5.563 4.455l.486 2.7c.026.162.053.324.053.486 0 .729-.35 1.377-1.296 1.944 1.323.675 2.106 1.485 2.268 2.43l.486 2.727 1.026 1.35c.054.27.081.513.081.729 0 1.431-.89 2.079-1.863 2.079h-1.242c-1.133 0-2.457-.891-2.808-2.808l-.701-4.077h-1.161L226.6 77h-4.86zm3.023-10.395h1.161l-.648-3.645h-1.16l.648 3.645zM234.351 77l-.487-18.9h7.02l6.21 18.9h-5.13l-1.025-3.78h-1.782l.323 3.78h-5.13zm4.428-8.1h1.025l-1.484-5.535.459 5.535zm14.445 8.1c-2.24 0-5.156-1.647-5.724-4.86l-1.62-9.18a5.829 5.829 0 0 1-.08-.945c0-2.592 2.078-3.915 4.076-3.915h1.08c2.242 0 5.157 1.647 5.725 4.86l.377 2.16h-4.86l-.378-2.16h-1.08l1.62 9.18h1.08l-.377-2.16h4.86l.377 2.16c.054.324.082.648.082.945 0 2.592-2.08 3.915-4.077 3.915h-1.08zm8.02 0l-3.348-18.9h4.86l3.349 18.9h-4.86zm12.016 0c-2.24 0-5.156-1.647-5.724-4.86l-.243-1.35h4.86l.243 1.35h1.08c-.675-3.78-6.452-1.944-7.695-9.18a5.829 5.829 0 0 1-.08-.945c0-2.592 2.078-3.915 4.076-3.915h1.08c2.241 0 5.157 1.647 5.724 4.86l.27 1.539h-4.86l-.27-1.539h-1.08c.594 3.402 6.453 2.16 7.695 9.18.054.324.082.648.082.945 0 2.592-2.08 3.915-4.077 3.915h-1.08zm8.101 0l-3.347-18.9h6.965l2.863 9.774-.567-9.774h6.939l3.348 18.9h-4.86l-2.08-11.745.594 11.745h-3.51l-3.564-11.745L286.222 77h-4.86zm20.764 4.428c3.267 0 3.834-1.809 3.834-3.213 0-.486-.053-.918-.108-1.215l-.863-4.86h-5.13l.863 4.86h2.43c.054.351.108.675.108.945 0 .648-.297 1.053-1.566 1.053l.433 2.43zM179.752 106c-1.998 0-4.077-1.323-4.077-3.915 0-.297.027-.621.081-.945.433-2.43 2.214-3.969 4.24-4.563-.595-1.188-.919-2.133-.919-3.267 0-.432.054-.864.136-1.35.567-3.213 3.483-4.86 5.724-4.86h1.08c1.998 0 4.077 1.323 4.077 3.915 0 .297-.028.621-.082.945-.486 2.781-2.754 4.401-4.805 4.779.243.54.567 1.08.918 1.593l3.213-2.727 1.89 2.295-3.025 2.565c.621.432 1.215.756 1.863.945l-.81 4.59c-1.89 0-2.78-.189-4.428-1.647-1.16 1.08-2.7 1.647-3.995 1.647h-1.08zm3.808-11.178h1.08l.594-3.24h-1.08l-.594 3.24zm-3.186 6.858h2.052c-.567-.783-1.134-1.647-1.593-2.538l-.46 2.538zm17.498 4.32l6.21-18.9h7.02l-.487 18.9h-5.13l.325-3.78h-1.782l-1.026 3.78h-5.13zm7.29-8.1h1.025l.46-5.535-1.486 5.535zm7.29 8.1h4.86l1.782-10.098.784 10.098h5.238l3.347-18.9h-4.86l-1.323 7.506-.566-7.506H215.8l-3.349 18.9zm17.578 0l2.484-14.04h-2.835l.864-4.86h10.53l-.864 4.86h-2.834L234.89 106h-4.86zm9.775 0l3.349-18.9h4.86l-3.349 18.9h-4.86zm12.097 0c-1.997 0-4.076-1.323-4.076-3.915 0-.297.026-.621.08-.945l.243-1.35h4.86l-.242 1.35h1.08c.026-.189.054-.378.054-.54 0-2.781-4.699-1.971-4.699-6.858 0-.513.082-1.107.19-1.782.566-3.213 3.483-4.86 5.724-4.86h1.08c1.997 0 4.076 1.323 4.076 3.915 0 .297-.026.621-.08.945l-.27 1.539h-4.86l.27-1.539h-1.08c-.028.162-.028.297-.028.432 0 2.592 4.644 2.16 4.644 7.047 0 .486-.053 1.053-.161 1.701-.567 3.213-3.483 4.86-5.724 4.86h-1.08zm8.237 0l3.347-18.9h10.233l-.863 4.86h-5.373l-.433 2.376h4.32l-.755 4.401h-4.32l-.433 2.403h5.373l-.863 4.86h-10.233zm12.447 0l3.349-18.9h6.966l-.594 9.774 2.888-9.774h6.94l-3.349 18.9h-4.86l2.08-11.745L282.441 106h-3.51l.594-11.745-2.08 11.745h-4.86zm18.82 0l3.349-18.9h4.86l-3.349 18.9h-4.86zm9.776 0l2.483-14.04h-2.835l.865-4.86h10.53l-.865 4.86h-2.834L306.04 106h-4.86zm9.774 0l3.349-18.9h4.86l-3.349 18.9h-4.86zm12.097 0c-1.998 0-4.077-1.323-4.077-3.915 0-.297.027-.621.082-.945l.243-1.35h4.86l-.243 1.35h1.08c.026-.189.053-.378.053-.54 0-2.781-4.697-1.971-4.697-6.858 0-.513.08-1.107.189-1.782.567-3.213 3.483-4.86 5.724-4.86h1.08c1.998 0 4.077 1.323 4.077 3.915 0 .297-.027.621-.082.945l-.27 1.539h-4.86l.27-1.539h-1.08c-.026.162-.026.297-.026.432 0 2.592 4.644 2.16 4.644 7.047 0 .486-.054 1.053-.162 1.701-.567 3.213-3.483 4.86-5.724 4.86h-1.08zm8.236 0l3.349-18.9h6.966l-.594 9.774 2.889-9.774h6.938L347.49 106h-4.86l2.079-11.745L341.144 106h-3.51l.594-11.745L336.15 106h-4.86zM229.368 359l-.486-18.9h7.02l6.21 18.9h-5.13l-1.026-3.78h-1.782l.324 3.78h-5.13zm4.428-8.1h1.026l-1.485-5.535.459 5.535zm11.341 8.1l-2.484-14.04h-2.835l-.864-4.86h10.53l.864 4.86h-2.835l2.484 14.04h-4.86zm18.47 0h4.86l-2.484-14.04h2.835l-.864-4.86h-10.53l.864 4.86h2.835l2.484 14.04zm9.775 0l-3.348-18.9h4.86l1.323 7.425h1.755l-1.323-7.425h4.86l3.348 18.9h-4.86l-1.161-6.615h-1.755l1.161 6.615h-4.86zm14.095 0l-3.348-18.9h10.233l.864 4.86h-5.373l.432 2.376h4.32l.756 4.401h-4.32l.432 2.403h5.373l.864 4.86h-10.233zm-82.492 29c-1.998 0-4.077-1.323-4.077-3.915 0-.297.027-.621.081-.945l2.484-14.04h4.86l-2.484 14.04h1.08l2.484-14.04h4.86l-2.484 14.04c-.567 3.213-3.483 4.86-5.724 4.86h-1.08zm8.29 0l3.348-18.9h5.913l.567 7.506 1.323-7.506h4.86l-3.348 18.9H220.7l-.783-10.098L218.135 388h-4.86zm15.283 0l3.348-18.9h4.86l-3.348 18.9h-4.86zm9.667 0l.486-18.9h5.13l-1.161 13.635 3.645-13.635h5.13l-6.21 18.9h-7.02zm11.827 0l3.348-18.9h10.233l-.864 4.86h-5.373l-.432 2.376h4.32l-.756 4.401h-4.32l-.432 2.403h5.373l-.864 4.86h-10.233zm12.448 0l3.348-18.9h6.102c1.971.027 3.996 1.35 3.996 3.888 0 .324-.027.648-.081.972l-.405 2.295c-.162.945-.702 1.755-2.106 2.43.972.594 1.431 1.269 1.431 2.079 0 .108 0 .216-.027.351l-.486 2.727.594 1.35c-.351 1.917-1.674 2.808-2.808 2.808h-1.242c-.972 0-1.863-.648-1.863-2.079 0-.216.027-.459.081-.729l.702-4.077h-1.161L267.36 388h-4.86zm6.696-10.395h1.161l.648-3.645h-1.161l-.648 3.645zM280.699 388c-1.998 0-4.077-1.323-4.077-3.915 0-.297.027-.621.081-.945l.243-1.35h4.86l-.243 1.35h1.08c.027-.189.054-.378.054-.54 0-2.781-4.698-1.971-4.698-6.858 0-.513.081-1.107.189-1.782.567-3.213 3.483-4.86 5.724-4.86h1.08c1.998 0 4.077 1.323 4.077 3.915 0 .297-.027.621-.081.945l-.27 1.539h-4.86l.27-1.539h-1.08c-.027.162-.027.297-.027.432 0 2.592 4.644 2.16 4.644 7.047 0 .486-.054 1.053-.162 1.701-.567 3.213-3.483 4.86-5.724 4.86h-1.08zm8.236 0l3.348-18.9h4.86l-3.348 18.9h-4.86zm9.775 0h4.86l2.484-14.04h2.835l.864-4.86h-10.53l-.864 4.86h2.835L298.71 388zm13.204 0h4.86l1.269-7.155 6.318-11.745h-5.13l-2.7 6.453-.432-6.453h-5.13l2.214 11.745-1.269 7.155zm-120.753 29c-1.999 0-4.078-1.323-4.078-3.915 0-.297.028-.621.082-.945l1.62-9.18c.566-3.213 3.483-4.86 5.724-4.86h1.08c1.998 0 4.077 1.323 4.077 3.915 0 .297-.028.621-.082.945l-1.62 9.18c-.566 3.213-3.482 4.86-5.724 4.86h-1.08zm.863-4.86h1.08l1.62-9.18h-1.08l-1.62 9.18zm7.427 4.86l3.347-18.9h10.233l-.864 4.86h-5.373l-.486 2.7h4.86l-.837 4.86h-4.86l-1.16 6.48h-4.86zm18.713 0l3.348-18.9h6.965l-.594 9.774 2.89-9.774h6.939l-3.349 18.9h-4.86l2.08-11.745L228.018 417h-3.51l.594-11.745L223.024 417h-4.86zm18.82 0l3.347-18.9h4.86l-3.347 18.9h-4.86zm7.48 0l3.347-18.9h5.913l.567 7.506 1.324-7.506h4.86l-3.349 18.9h-5.237l-.784-10.098L249.325 417h-4.86zm15.283 0l3.347-18.9h5.913l.567 7.506 1.323-7.506h4.86L272.41 417h-5.238l-.782-10.098L264.606 417h-4.86zm15.282 0l3.349-18.9h10.233l-.864 4.86h-5.374l-.431 2.376h4.32l-.757 4.401h-4.32l-.432 2.403h5.374l-.865 4.86H275.03zm16.93 0c-1.998 0-4.077-1.323-4.077-3.915 0-.297.027-.621.082-.945l.243-1.35h4.86l-.243 1.35h1.08c.026-.189.053-.378.053-.54 0-2.781-4.697-1.971-4.697-6.858 0-.513.08-1.107.189-1.782.566-3.213 3.483-4.86 5.724-4.86h1.08c1.998 0 4.077 1.323 4.077 3.915 0 .297-.027.621-.082.945l-.27 1.539h-4.86l.27-1.539h-1.08c-.026.162-.026.297-.026.432 0 2.592 4.644 2.16 4.644 7.047 0 .486-.054 1.053-.162 1.701-.567 3.213-3.483 4.86-5.725 4.86h-1.08zm12.827 0c-1.998 0-4.077-1.323-4.077-3.915 0-.297.026-.621.08-.945l1.62-9.18c.567-3.213 3.483-4.86 5.725-4.86h1.08c1.998 0 4.077 1.323 4.077 3.915 0 .297-.027.621-.082.945l-1.62 9.18c-.567 3.213-3.483 4.86-5.724 4.86h-1.08zm.863-4.86h1.08l1.62-9.18h-1.08l-1.62 9.18zm9.587 4.86l2.483-14.04h-2.834l.863-4.86h10.53l-.864 4.86h-2.834L320.096 417h-4.86zm7.885 0l6.21-18.9h7.02l-.486 18.9h-5.13l.323-3.78h-1.781L328.25 417h-5.13zm7.29-8.1h1.026l.459-5.535-1.486 5.535zM215.638 446l-3.348-18.9h4.86l3.348 18.9h-4.86zm12.07 0c-2.241 0-5.157-1.647-5.724-4.86h5.94l-.432-2.43h-1.08c-2.241 0-5.157-1.647-5.724-4.86l-.324-1.89a5.829 5.829 0 0 1-.081-.945c0-2.592 2.079-3.915 4.077-3.915h1.08c2.241 0 5.157 1.647 5.724 4.86l1.62 9.18c.054.324.081.648.081.945 0 2.592-2.079 3.915-4.077 3.915h-1.08zm-2.16-12.15h1.08l-.324-1.89h-1.08l.324 1.89zM240.129 446c-2.241 0-5.157-1.647-5.724-4.86h5.94l-.378-2.16-4.185-1.08-.54-2.97h3.996l-.513-2.97h-5.94a5.829 5.829 0 0 1-.081-.945c0-2.592 2.079-3.915 4.077-3.915h1.08c2.241 0 5.157 1.647 5.724 4.86l.378 2.16c.027.162.054.324.054.486 0 .756-.351 1.377-1.296 1.944 1.377.675 1.944 1.485 2.106 2.43l.378 2.16c.054.324.081.648.081.945 0 2.592-2.079 3.915-4.077 3.915h-1.08zm12.88 0c-2.241 0-5.157-1.647-5.724-4.86l-1.62-9.18a5.829 5.829 0 0 1-.081-.945c0-2.592 2.079-3.915 4.077-3.915h1.08c2.241 0 5.157 1.647 5.724 4.86l1.62 9.18c.054.324.081.648.081.945 0 2.592-2.079 3.915-4.077 3.915h-1.08zm-.864-4.86h1.08l-1.62-9.18h-1.08l1.62 9.18zm8.452-2.16h4.32l-.864-4.86h-4.32l.864 4.86zm8.722 7.02l-3.348-18.9h4.86l3.348 18.9h-4.86zm12.07 0c-2.241 0-5.157-1.647-5.724-4.86h5.94l-.432-2.43h-1.08c-2.241 0-5.157-1.647-5.724-4.86l-.324-1.89a5.829 5.829 0 0 1-.081-.945c0-2.592 2.079-3.915 4.077-3.915h1.08c2.241 0 5.157 1.647 5.724 4.86l1.62 9.18c.054.324.081.648.081.945 0 2.592-2.079 3.915-4.077 3.915h-1.08zm-2.16-12.15h1.08l-.324-1.89h-1.08l.324 1.89zM295.133 446h4.86l-.864-4.887h1.35l-.756-4.32h-1.35l-.864-4.833h-4.86l.864 4.833h-1.566l.891-9.693h-3.915l-1.404 9.693.756 4.32h5.994l.864 4.887zm8.02 0h10.233l-.864-4.86h-5.373l-.378-2.106h1.215c1.998 0 4.077-1.323 4.077-3.915 0-.297-.027-.621-.081-.945l-.378-2.214c-.567-3.213-3.483-4.86-5.724-4.86h-1.08c-1.998 0-4.077 1.323-4.077 3.915 0 .297.027.621.081.945h5.94l.378 2.214h-1.215c-1.998 0-4.077 1.323-4.077 3.915 0 .297.027.621.081.945l1.242 6.966z" fill="#EABA9D"/><g fill="#FFF"><path d="M42.071 233.745H24.493l-11.587-61.088h16.632l12.533 61.088zm-46.979 0L7.546 191.18l8.119 42.565H-4.908zm70.758-30.347c0 15.528 4.887 28.377 19.469 30.9v-62.035c-14.582 2.6-19.47 15.37-19.47 31.135zm46.033-12.218c-1.025-9.458-7.252-17.814-17.972-18.917v24.514l17.972-5.597zm0 24.357l-17.972-5.596v24.198c10.799-1.103 16.947-9.064 17.972-18.602zm4.519 6.385c0 7.488 6.306 11.823 15.45 11.823h3.389V210.02h-3.39c-9.143 0-15.45 4.415-15.45 11.903zm18.839-14.661v-16.869c-9.459.394-15.134 5.518-17.184 11.509l17.184 5.36zm23.805 26.484v-30.11c0-9.775-8.12-13.243-14.74-13.243h-1.577v43.353h16.317zm9.721 0h16.396V191.18h-16.396v42.565zm40.043 0v-29.322c0-9.774-8.12-13.243-14.74-13.243h-1.577v42.565h16.317zm23.41 0v-29.322c0-9.774-8.118-13.243-14.74-13.243h-1.576v42.565h16.316zm52.05-21.124c0-11.745-6.778-21.44-18.602-21.44v42.564c10.878 0 18.603-9.3 18.603-21.124zm-42.328 38.86h16.395v-60.3h-16.395v60.3zm90.359-60.3h-16.396v42.564h16.396V191.18zm-40.043 0v29.322c0 9.774 8.119 13.242 14.74 13.242h1.577V191.18h-16.317zm48.266 31.214c2.05 5.596 7.804 10.72 16.002 12.139v-44.142c-7.094.316-16.238 6.306-16.238 13.48 0 6.62 2.838 11.034 11.272 14.897l-11.036 3.626zm39.412-19.864c-2.049-5.596-7.882-10.72-16.08-12.139v44.142c7.095-.316 16.317-6.306 16.317-13.48 0-6.62-2.838-11.035-11.272-14.897l11.035-3.626zM88.997 302.716c16.238 0 16.869 0 17.657-.079v-61.01H88.997v61.09zm44.772-31.53c0-14.66-6.227-24.671-18.523-28.14 0 9.696.079 44.536 0 58.173 13.085-3.942 18.523-15.608 18.523-30.032zm8.776 31.53h16.396v-42.565h-16.396v42.565zm-.788-54.388c0 4.493 4.02 8.75 8.907 8.75 4.966 0 9.065-4.257 9.065-8.75s-4.1-8.75-9.065-8.75c-4.887 0-8.907 4.257-8.907 8.75zm25.092 11.823l10.405 42.565h14.74l-8.513-42.565h-16.632zm40.91 0h-13.637l-1.734 7.646 4.493 23.096 10.878-30.742zm7.908 42.565h16.396v-42.565h-16.396v42.565zm-.788-54.388c0 4.493 4.02 8.75 8.907 8.75 4.966 0 9.065-4.257 9.065-8.75s-4.099-8.75-9.065-8.75c-4.887 0-8.907 4.257-8.907 8.75zm25.96 32.948c0 11.745 6.778 21.44 18.523 21.44v-42.565c-10.799 0-18.523 9.302-18.523 21.125zm42.328-39.648h-16.395v61.088h16.395v-61.088zm49.764 36.495c-.788-11.035-6.148-17.42-16.71-18.76v23.805l16.71-5.045zm-41.777 3.153c0 11.35 5.36 20.81 17.736 22.229v-44.142c-12.376 1.655-17.736 11.903-17.736 21.913zm41.383 10.484l-16.317-5.281.08 17.026c9.38-1.104 14.109-5.597 16.237-11.745zm6.647-10.484c0 11.745 6.78 21.44 18.524 21.44v-42.565c-10.799 0-18.524 9.302-18.524 21.125zm42.329-39.648h-16.395v61.088h16.395v-61.088z"/></g></g></svg>