<svg width="820" height="838" viewBox="0 0 820 838" xmlns="http://www.w3.org/2000/svg"><title>title-tablet</title><g fill="none" fill-rule="evenodd"><path d="M452.68 39L445.86.5h12.43c4.51.055 10.34 3.41 11.495 9.9l1.32 7.425c.11.66.165 1.32.165 1.925 0 5.115-3.96 7.81-7.975 7.975H460.6L462.58 39h-9.9zm6.16-21.175h2.365l-1.32-7.425h-2.365l1.32 7.425zM478.53 39L471.71.5h12.43c4.455.055 10.175 3.135 11.33 9.075l.99 5.5c.055.33.11.66.11.99 0 1.485-.715 2.805-2.64 3.96 2.695 1.375 4.29 3.025 4.62 4.95l.99 5.555 2.09 2.75c.11.55.165 1.045.165 1.485C501.795 37.68 499.98 39 498 39h-2.53c-2.31 0-5.005-1.815-5.72-5.72l-1.43-8.305h-2.365L488.43 39h-9.9zm6.16-21.175h2.365l-1.32-7.425h-2.365l1.32 7.425zM514.83 39c-4.565 0-10.505-3.355-11.66-9.9l-3.3-18.7c-.11-.66-.165-1.32-.165-1.925 0-5.28 4.235-7.975 8.305-7.975h2.2c4.565 0 10.505 3.355 11.66 9.9l3.3 18.7c.11.66.165 1.32.165 1.925 0 5.28-4.235 7.975-8.305 7.975h-2.2zm-1.76-9.9h2.2l-3.3-18.7h-2.2l3.3 18.7zm27.335 9.9c-4.565 0-10.505-3.355-11.66-9.9l-3.3-18.7c-.11-.66-.165-1.32-.165-1.925 0-5.28 4.235-7.975 8.305-7.975h2.2c4.565 0 10.505 3.355 11.66 9.9l.77 4.4h-9.9l-.77-4.4h-2.2l3.3 18.7h2.2l-.77-4.4h-1.1l-1.485-8.25h12.1l1.485 8.25h-1.1l.77 4.4c.11.66.165 1.32.165 1.925 0 5.28-4.235 7.975-8.305 7.975h-2.2zm16.885 0L550.47.5h12.43c4.455.055 10.175 3.135 11.33 9.075l.99 5.5c.055.33.11.66.11.99 0 1.485-.715 2.805-2.64 3.96 2.695 1.375 4.29 3.025 4.62 4.95l.99 5.555 2.09 2.75c.11.55.165 1.045.165 1.485 0 2.915-1.815 4.235-3.795 4.235h-2.53c-2.31 0-5.005-1.815-5.72-5.72l-1.43-8.305h-2.365L567.19 39h-9.9zm6.16-21.175h2.365l-1.32-7.425h-2.365l1.32 7.425zM584.24 39L577.42.5h20.845l1.76 9.9H589.08l.88 4.84h8.8l1.54 8.965h-8.8l.88 4.895h10.945l1.76 9.9H584.24zm33.66 0c-4.565 0-10.505-3.355-11.66-9.9l-.495-2.75h9.9l.495 2.75h2.2c-1.375-7.7-13.145-3.96-15.675-18.7-.11-.66-.165-1.32-.165-1.925 0-5.28 4.235-7.975 8.305-7.975h2.2c4.565 0 10.505 3.355 11.66 9.9l.55 3.135h-9.9l-.55-3.135h-2.2c1.21 6.93 13.145 4.4 15.675 18.7.11.66.165 1.32.165 1.925 0 5.28-4.235 7.975-8.305 7.975h-2.2zm24.53 0c-4.565 0-10.505-3.355-11.66-9.9l-.495-2.75h9.9l.495 2.75h2.2c-1.375-7.7-13.145-3.96-15.675-18.7-.11-.66-.165-1.32-.165-1.925 0-5.28 4.235-7.975 8.305-7.975h2.2c4.565 0 10.505 3.355 11.66 9.9l.55 3.135h-9.9l-.55-3.135h-2.2c1.21 6.93 13.145 4.4 15.675 18.7.11.66.165 1.32.165 1.925 0 5.28-4.235 7.975-8.305 7.975h-2.2zm15.84 0L651.45.5h9.9l6.82 38.5h-9.9zm19.03 0L664.65.5h10.45l7.425 27.775L680.16.5h10.45l.99 38.5h-14.3zm23.43 0L693.91.5h20.845l1.76 9.9H705.57l.88 4.84h8.8l1.54 8.965h-8.8l.88 4.895h10.945l1.76 9.9H700.73zm33.66 0c-4.565 0-10.505-3.355-11.66-9.9l-.495-2.75h9.9l.495 2.75h2.2c-1.375-7.7-13.145-3.96-15.675-18.7-.11-.66-.165-1.32-.165-1.925 0-5.28 4.235-7.975 8.305-7.975h2.2c4.565 0 10.505 3.355 11.66 9.9l.55 3.135h-9.9l-.55-3.135h-2.2c1.21 6.93 13.145 4.4 15.675 18.7.11.66.165 1.32.165 1.925 0 5.28-4.235 7.975-8.305 7.975h-2.2zm19.8 9.02c6.655 0 7.81-3.685 7.81-6.545 0-.99-.11-1.87-.22-2.475l-1.76-9.9h-10.45l1.76 9.9h4.95c.11.715.22 1.375.22 1.925 0 1.32-.605 2.145-3.19 2.145l.88 4.95zM410.94 96l12.65-38.5h14.3L436.9 96h-10.45l.66-7.7h-3.63l-2.09 7.7h-10.45zm14.85-16.5h2.09l.934-11.275L425.79 79.5zM439.864 96h9.9l3.63-20.57L454.99 96h10.67l6.82-38.5h-9.9l-2.695 15.29-1.155-15.29h-12.045l-6.82 38.5zm35.03 0l5.06-28.6h-5.775l1.76-9.9h21.45l-1.76 9.9h-5.775l-5.06 28.6h-9.9zm19.136 0l6.82-38.5h9.9L503.93 96h-9.9zm23.81 0c-4.07 0-8.305-2.695-8.305-7.975 0-.605.055-1.265.165-1.925l3.3-18.7c1.155-6.545 7.095-9.9 11.66-9.9h2.2c4.07 0 8.305 2.695 8.305 7.975 0 .605-.055 1.265-.165 1.925l-.77 4.4h-9.9l.77-4.4h-2.2l-3.3 18.7h2.2l.77-4.4h9.9l-.77 4.4c-1.155 6.545-7.095 9.9-11.66 9.9h-2.2zm25.185 0c-4.07 0-8.305-2.695-8.305-7.975 0-.605.055-1.265.165-1.925l3.3-18.7c1.155-6.545 7.095-9.9 11.66-9.9h2.2c4.07 0 8.305 2.695 8.305 7.975 0 .605-.055 1.265-.165 1.925l-3.3 18.7c-1.155 6.545-7.095 9.9-11.66 9.9h-2.2zm1.76-9.9h2.2l3.3-18.7h-2.2l-3.3 18.7zm14.35 9.9l6.82-38.5h14.19l-1.21 19.91 5.886-19.91h14.135l-6.82 38.5h-9.9l4.235-23.925L579.212 96h-7.15l1.21-23.925L569.037 96h-9.9zm37.561 0l6.82-38.5h14.19l-1.21 19.91 5.885-19.91h14.135l-6.82 38.5h-9.9l4.235-23.925L616.772 96h-7.15l1.21-23.925L606.597 96h-9.9zm46.91 0c-4.07 0-8.304-2.695-8.304-7.975 0-.605.055-1.265.165-1.925l5.06-28.6h9.9l-5.06 28.6h2.2l5.06-28.6h9.9l-5.06 28.6c-1.155 6.545-7.095 9.9-11.66 9.9h-2.2zm16.111 0l6.82-38.5h12.045l1.155 15.29 2.695-15.29h9.9l-6.82 38.5h-10.67l-1.595-20.57-3.63 20.57h-9.9zm30.356 0l6.82-38.5h9.9l-6.82 38.5h-9.9zm23.865 0c-4.07 0-8.305-2.695-8.305-7.975 0-.605.055-1.265.165-1.925l.495-2.75h9.9l-.495 2.75h2.2c.055-.385.11-.77.11-1.1 0-5.665-9.57-4.015-9.57-13.97 0-1.045.165-2.255.385-3.63 1.155-6.545 7.095-9.9 11.66-9.9h2.2c4.07 0 8.305 2.695 8.305 7.975 0 .605-.055 1.265-.165 1.925l-.55 3.135h-9.9l.55-3.135h-2.2c-.055.33-.055.605-.055.88 0 5.28 9.46 4.4 9.46 14.355 0 .99-.11 2.145-.33 3.465-1.155 6.545-7.095 9.9-11.66 9.9h-2.2zm19.575 0l5.06-28.6H732.8l1.76-9.9h21.45l-1.76 9.9h-5.775l-5.06 28.6h-9.9zm27.99 0c-4.07 0-8.304-2.695-8.304-7.975 0-.605.055-1.265.165-1.925l.495-2.75h9.9l-.495 2.75h2.2c.055-.385.11-.77.11-1.1 0-5.665-9.57-4.015-9.57-13.97 0-1.045.165-2.255.385-3.63 1.155-6.545 7.095-9.9 11.66-9.9h2.2c4.07 0 8.305 2.695 8.305 7.975 0 .605-.055 1.265-.165 1.925l-.55 3.135h-9.9l.55-3.135h-2.2c-.055.33-.055.605-.055.88 0 5.28 9.46 4.4 9.46 14.355 0 .99-.11 2.145-.33 3.465-1.155 6.545-7.095 9.9-11.66 9.9h-2.2zm16.221 9.02l.88-4.95c3.685 0 4.015-1.705 4.4-4.07h-4.95l1.76-9.9h10.45l-1.76 9.9c-.385 2.31-1.815 9.02-10.78 9.02zM523.671 153l-6.82-38.5h12.43c4.455.055 10.175 3.135 11.33 9.075l.99 5.5c.055.33.11.66.11.99 0 1.485-.715 2.805-2.64 3.96 2.695 1.375 4.29 3.025 4.62 4.95l.99 5.555 2.09 2.75c.11.55.165 1.045.165 1.485 0 2.915-1.815 4.235-3.795 4.235h-2.53c-2.31 0-5.005-1.815-5.72-5.72l-1.43-8.305h-2.365L533.571 153h-9.9zm6.16-21.175h2.365l-1.32-7.425h-2.365l1.32 7.425zM548.581 153l-.99-38.5h14.3l12.65 38.5h-10.45l-2.09-7.7h-3.63l.66 7.7h-10.45zm9.02-16.5h2.09l-3.025-11.275.935 11.275zm28.65 16.5c-4.564 0-10.504-3.355-11.66-9.9l-3.3-18.7c-.11-.66-.164-1.32-.164-1.925 0-5.28 4.235-7.975 8.305-7.975h2.2c4.565 0 10.505 3.355 11.66 9.9l.77 4.4h-9.9l-.77-4.4h-2.2l3.3 18.7h2.2l-.77-4.4h9.9l.77 4.4c.11.66.165 1.32.165 1.925 0 5.28-4.235 7.975-8.305 7.975h-2.2zm15.561 0l-6.82-38.5h9.9l6.82 38.5h-9.9zm23.7 0c-4.564 0-10.504-3.355-11.66-9.9l-.494-2.75h9.9l.495 2.75h2.2c-1.375-7.7-13.145-3.96-15.675-18.7-.11-.66-.165-1.32-.165-1.925 0-5.28 4.235-7.975 8.305-7.975h2.2c4.565 0 10.505 3.355 11.66 9.9l.55 3.135h-9.9l-.55-3.135h-2.2c1.21 6.93 13.145 4.4 15.675 18.7.11.66.165 1.32.165 1.925 0 5.28-4.235 7.975-8.305 7.975h-2.2zm15.726 0l-6.82-38.5h14.19l5.83 19.91-1.155-19.91h14.135l6.82 38.5h-9.9l-4.235-23.925 1.21 23.925h-7.15l-7.26-23.925L651.138 153h-9.9zm41.52 9.02c6.656 0 7.81-3.685 7.81-6.545 0-.99-.11-1.87-.22-2.475l-1.76-9.9h-10.45l1.76 9.9h4.95c.11.715.22 1.375.22 1.925 0 1.32-.604 2.145-3.19 2.145l.88 4.95zM439.84 210c-4.07 0-8.305-2.695-8.305-7.975 0-.605.055-1.265.165-1.925.88-4.95 4.51-8.085 8.635-9.295-1.21-2.42-1.87-4.345-1.87-6.655 0-.88.11-1.76.275-2.75 1.155-6.545 7.095-9.9 11.66-9.9h2.2c4.07 0 8.305 2.695 8.305 7.975 0 .605-.055 1.265-.165 1.925-.99 5.665-5.61 8.965-9.79 9.735.495 1.1 1.155 2.2 1.87 3.245l6.545-5.555 3.85 4.675-6.16 5.225c1.265.88 2.475 1.54 3.795 1.925L459.2 210c-3.85 0-5.665-.385-9.02-3.355-2.365 2.2-5.5 3.355-8.14 3.355h-2.2zm7.755-22.77h2.2l1.21-6.6h-2.2l-1.21 6.6zm-6.49 13.97h4.18c-1.155-1.595-2.31-3.355-3.245-5.17l-.935 5.17zm34.09 8.8l12.65-38.5h14.3l-.99 38.5h-10.45l.66-7.7h-3.63l-2.09 7.7h-10.45zm14.85-16.5h2.09l.935-11.275-3.025 11.275zm14.076 16.5h9.9l3.63-20.57 1.595 20.57h10.67l6.82-38.5h-9.9l-2.695 15.29-1.155-15.29H510.94l-6.82 38.5zm35.03 0l5.06-28.6h-5.775l1.76-9.9h21.45l-1.76 9.9h-5.775l-5.06 28.6h-9.9zm19.136 0l6.82-38.5h9.9l-6.82 38.5h-9.9zm23.865 0c-4.07 0-8.305-2.695-8.305-7.975 0-.605.055-1.265.165-1.925l.495-2.75h9.9l-.495 2.75h2.2c.055-.385.11-.77.11-1.1 0-5.665-9.57-4.015-9.57-13.97 0-1.045.165-2.255.385-3.63 1.155-6.545 7.095-9.9 11.66-9.9h2.2c4.07 0 8.305 2.695 8.305 7.975 0 .605-.055 1.265-.165 1.925l-.55 3.135h-9.9l.55-3.135h-2.2c-.055.33-.055.605-.055.88 0 5.28 9.46 4.4 9.46 14.355 0 .99-.11 2.145-.33 3.465-1.155 6.545-7.095 9.9-11.66 9.9h-2.2zm16 0l6.82-38.5h20.846l-1.76 9.9h-10.946l-.88 4.84h8.8l-1.54 8.965h-8.8l-.88 4.895h10.946l-1.76 9.9h-20.846zm24.58 0l6.82-38.5h14.19l-1.21 19.91 5.886-19.91h14.135l-6.82 38.5h-9.9l4.235-23.925-7.26 23.925h-7.15l1.21-23.925L632.633 210h-9.9zm37.561 0l6.82-38.5h9.9l-6.82 38.5h-9.9zm19.136 0l5.06-28.6h-5.775l1.76-9.9h21.45l-1.76 9.9h-5.775l-5.06 28.6h-9.9zm19.135 0l6.82-38.5h9.9l-6.82 38.5h-9.9zm23.866 0c-4.07 0-8.305-2.695-8.305-7.975 0-.605.055-1.265.165-1.925l.495-2.75h9.9l-.495 2.75h2.2c.055-.385.11-.77.11-1.1 0-5.665-9.57-4.015-9.57-13.97 0-1.045.165-2.255.385-3.63 1.155-6.545 7.095-9.9 11.66-9.9h2.2c4.07 0 8.305 2.695 8.305 7.975 0 .605-.055 1.265-.165 1.925l-.55 3.135h-9.9l.55-3.135h-2.2c-.055.33-.055.605-.055.88 0 5.28 9.46 4.4 9.46 14.355 0 .99-.11 2.145-.33 3.465-1.155 6.545-7.095 9.9-11.66 9.9h-2.2zm16 0l6.82-38.5h14.19l-1.21 19.91 5.885-19.91h14.135l-6.82 38.5h-9.9l4.235-23.925-7.26 23.925h-7.15l1.21-23.925L748.33 210h-9.9zM539.808 667l-.99-38.5h14.3l12.65 38.5h-10.45l-2.09-7.7h-3.63l.66 7.7h-10.45zm9.02-16.5h2.09l-3.025-11.275.934 11.275zm22.44 16.5l-5.06-28.6h-5.775l-1.76-9.9h21.45l1.76 9.9h-5.776l5.06 28.6h-9.9zm36.3 0h9.9l-5.06-28.6h5.774l-1.76-9.9h-21.45l1.76 9.9h5.776l5.06 28.6zm19.25 0l-6.82-38.5h9.9l2.694 15.125h3.576l-2.696-15.125h9.9l6.82 38.5h-9.9l-2.365-13.475h-3.575L636.717 667h-9.9zm28.05 0l-6.82-38.5h20.845l1.76 9.9h-10.946l.88 4.84h8.8l1.54 8.965h-8.8l.88 4.895h10.946l1.76 9.9h-20.846zm-163.406 57c-4.07 0-8.304-2.695-8.304-7.975 0-.605.054-1.265.164-1.925l5.06-28.6h9.9l-5.06 28.6h2.2l5.06-28.6h9.9l-5.06 28.6c-1.154 6.545-7.094 9.9-11.66 9.9h-2.2zm16.226 0l6.82-38.5h12.044l1.155 15.29 2.696-15.29h9.9l-6.82 38.5h-10.67l-1.596-20.57-3.63 20.57h-9.9zm30.47 0l6.82-38.5h9.9l-6.82 38.5h-9.9zm19.03 0l.99-38.5h10.45l-2.365 27.775 7.424-27.775h10.45l-12.65 38.5h-14.3zm23.43 0l6.82-38.5h20.845l-1.76 9.9h-10.946l-.88 4.84h8.8l-1.54 8.965h-8.8l-.88 4.895h10.945l-1.76 9.9h-20.845zm24.694 0l6.82-38.5h12.43c4.015.055 8.14 2.75 8.14 7.92 0 .66-.054 1.32-.164 1.98l-.826 4.675c-.33 1.925-1.43 3.575-4.29 4.95 1.98 1.21 2.915 2.585 2.915 4.235 0 .22 0 .44-.054.715l-.99 5.555 1.21 2.75c-.716 3.905-3.41 5.72-5.72 5.72h-2.53c-1.98 0-3.796-1.32-3.796-4.235 0-.44.056-.935.165-1.485l1.43-8.305h-2.365L615.212 724h-9.9zm13.64-21.175h2.365l1.32-7.425h-2.364l-1.32 7.425zM641.722 724c-4.07 0-8.304-2.695-8.304-7.975 0-.605.054-1.265.164-1.925l.495-2.75h9.9l-.495 2.75h2.2c.055-.385.11-.77.11-1.1 0-5.665-9.57-4.015-9.57-13.97 0-1.045.166-2.255.385-3.63 1.156-6.545 7.096-9.9 11.66-9.9h2.2c4.07 0 8.306 2.695 8.306 7.975 0 .605-.056 1.265-.166 1.925l-.55 3.135h-9.9l.55-3.135h-2.2c-.054.33-.054.605-.054.88 0 5.28 9.46 4.4 9.46 14.355 0 .99-.11 2.145-.33 3.465-1.155 6.545-7.096 9.9-11.66 9.9h-2.2zm16.115 0l6.82-38.5h9.9l-6.82 38.5h-9.9zm19.25 0h9.9l5.06-28.6h5.775l1.76-9.9h-21.45l-1.76 9.9h5.776l-5.06 28.6zm26.236 0h9.9l2.585-14.575 12.87-23.925h-10.45l-5.5 13.145-.88-13.145h-10.45l4.51 23.925L703.322 724zM463.69 781c-4.07 0-8.305-2.695-8.305-7.975 0-.605.055-1.265.165-1.925l3.3-18.7c1.155-6.545 7.095-9.9 11.66-9.9h2.2c4.07 0 8.305 2.695 8.305 7.975 0 .605-.055 1.265-.165 1.925l-3.3 18.7c-1.155 6.545-7.095 9.9-11.66 9.9h-2.2zm1.76-9.9h2.2l3.3-18.7h-2.2l-3.3 18.7zm14.465 9.9l6.82-38.5h20.845l-1.76 9.9h-10.945l-.99 5.5h9.9l-1.705 9.9h-9.9l-2.365 13.2h-9.9zm36.795 0l6.82-38.5h14.19l-1.21 19.91 5.885-19.91h14.135l-6.82 38.5h-9.9l4.235-23.925-7.26 23.925h-7.15l1.21-23.925L526.61 781h-9.9zm37.675 0l6.82-38.5h9.9l-6.82 38.5h-9.9zm14.575 0l6.82-38.5h12.045l1.155 15.29 2.695-15.29h9.9l-6.82 38.5h-10.67l-1.595-20.57-3.63 20.57h-9.9zm30.47 0l6.82-38.5h12.045l1.155 15.29 2.695-15.29h9.9l-6.82 38.5h-10.67l-1.595-20.57-3.63 20.57h-9.9zm30.47 0l6.82-38.5h20.845l-1.76 9.9H644.86l-.88 4.84h8.8l-1.54 8.965h-8.8l-.88 4.895h10.945l-1.76 9.9H629.9zm33.825 0c-4.07 0-8.305-2.695-8.305-7.975 0-.605.055-1.265.165-1.925l.495-2.75h9.9l-.495 2.75h2.2c.055-.385.11-.77.11-1.1 0-5.665-9.57-4.015-9.57-13.97 0-1.045.165-2.255.385-3.63 1.155-6.545 7.095-9.9 11.66-9.9h2.2c4.07 0 8.305 2.695 8.305 7.975 0 .605-.055 1.265-.165 1.925l-.55 3.135h-9.9l.55-3.135h-2.2c-.055.33-.055.605-.055.88 0 5.28 9.46 4.4 9.46 14.355 0 .99-.11 2.145-.33 3.465-1.155 6.545-7.095 9.9-11.66 9.9h-2.2zm25.465 0c-4.07 0-8.305-2.695-8.305-7.975 0-.605.055-1.265.165-1.925l3.3-18.7c1.155-6.545 7.095-9.9 11.66-9.9h2.2c4.07 0 8.305 2.695 8.305 7.975 0 .605-.055 1.265-.165 1.925l-3.3 18.7c-1.155 6.545-7.095 9.9-11.66 9.9h-2.2zm1.76-9.9h2.2l3.3-18.7h-2.2l-3.3 18.7zm18.865 9.9l5.06-28.6H709.1l1.76-9.9h21.45l-1.76 9.9h-5.775l-5.06 28.6h-9.9zm15.4 0l12.65-38.5h14.3l-.99 38.5h-10.45l.66-7.7h-3.63l-2.09 7.7h-10.45zm14.85-16.5h2.09l.935-11.275-3.025 11.275zM511.998 838l-6.82-38.5h9.9l6.82 38.5h-9.9zm23.81 0c-4.564 0-10.504-3.355-11.66-9.9h12.1l-.88-4.95h-2.2c-4.564 0-10.504-3.355-11.66-9.9l-.66-3.85c-.11-.66-.164-1.32-.164-1.925 0-5.28 4.235-7.975 8.305-7.975h2.2c4.565 0 10.505 3.355 11.66 9.9l3.3 18.7c.11.66.165 1.32.165 1.925 0 5.28-4.235 7.975-8.305 7.975h-2.2zm-4.4-24.75h2.2l-.66-3.85h-2.2l.66 3.85zM560.335 838c-4.565 0-10.505-3.355-11.66-9.9h12.1l-.77-4.4-8.525-2.2-1.1-6.05h8.14l-1.045-6.05h-12.1c-.11-.66-.165-1.32-.165-1.925 0-5.28 4.235-7.975 8.305-7.975h2.2c4.565 0 10.505 3.355 11.66 9.9l.77 4.4c.055.33.11.66.11.99 0 1.54-.715 2.805-2.64 3.96 2.805 1.375 3.96 3.025 4.29 4.95l.77 4.4c.11.66.165 1.32.165 1.925 0 5.28-4.235 7.975-8.305 7.975h-2.2zm25.46 0c-4.565 0-10.505-3.355-11.66-9.9l-3.3-18.7c-.11-.66-.165-1.32-.165-1.925 0-5.28 4.235-7.975 8.305-7.975h2.2c4.565 0 10.505 3.355 11.66 9.9l3.3 18.7c.11.66.165 1.32.165 1.925 0 5.28-4.235 7.975-8.305 7.975h-2.2zm-1.76-9.9h2.2l-3.3-18.7h-2.2l3.3 18.7zm16.44-4.4h8.8l-1.76-9.9h-8.8l1.76 9.9zm16.991 14.3l-6.82-38.5h9.9l6.82 38.5h-9.9zm23.81 0c-4.564 0-10.504-3.355-11.66-9.9h12.1l-.88-4.95h-2.2c-4.564 0-10.504-3.355-11.66-9.9l-.66-3.85c-.11-.66-.164-1.32-.164-1.925 0-5.28 4.235-7.975 8.305-7.975h2.2c4.565 0 10.505 3.355 11.66 9.9l3.3 18.7c.11.66.165 1.32.165 1.925 0 5.28-4.235 7.975-8.305 7.975h-2.2zm-4.4-24.75h2.2l-.66-3.85h-2.2l.66 3.85zM668.497 838l-1.76-9.955h-12.21l-1.54-8.8 2.86-19.745h7.975l-1.815 19.745h3.19l-1.76-9.845h9.9l1.76 9.845h2.75l1.54 8.8h-2.75l1.76 9.955h-9.9zm15.56 0l-2.53-14.19c-.11-.66-.165-1.32-.165-1.925 0-5.28 4.235-7.975 8.305-7.975h2.475l-.77-4.51h-12.1c-.11-.66-.165-1.32-.165-1.925 0-5.28 4.235-7.975 8.305-7.975h2.2c4.565 0 10.505 3.355 11.66 9.9l.77 4.51c.11.66.165 1.32.165 1.925 0 5.28-4.235 7.975-8.305 7.975h-2.475l.77 4.29h10.945l1.76 9.9h-20.845z" fill="#EABA9D"/><g fill="#FFF"><path d="M100.823 414.21h-37.65l-24.82-130.804h35.625l26.845 130.803zm-100.626 0l26.676-91.14 17.39 91.14H.197zm151.558-64.98c0 33.25 10.468 60.76 41.703 66.16V282.564c-31.235 5.57-41.703 32.911-41.703 66.667zm98.6-26.16c-2.194-20.254-15.532-38.145-38.494-40.507v52.49l38.495-11.984zm0 52.152l-38.494-11.983v51.814c23.13-2.363 36.3-19.41 38.495-39.831zm9.68 13.67c0 16.035 13.507 25.317 33.092 25.317h7.26v-50.802h-7.26c-19.585 0-33.091 9.452-33.091 25.486zm40.352-31.392v-36.118c-20.26.843-32.416 11.814-36.806 24.641l36.806 11.477zm50.989 56.71v-64.474c0-20.928-17.39-28.354-31.572-28.354h-3.377v92.827h34.949zm20.823 0h35.118v-91.14h-35.118v91.14zm85.769 0v-62.786c0-20.928-17.39-28.355-31.573-28.355h-3.376v91.14h34.949zm50.144 0v-62.786c0-20.928-17.39-28.355-31.572-28.355h-3.377v91.14h34.949zM619.6 368.976c0-25.148-14.52-45.908-39.845-45.908v91.14c23.3 0 39.845-19.915 39.845-45.232zm-90.665 83.208h35.118V323.069h-35.118v129.116zm193.542-129.116H687.36v91.14h35.117v-91.14zm-85.768 0v62.786c0 20.928 17.39 28.354 31.572 28.354h3.377v-91.14h-34.95zm103.384 66.836c4.39 11.984 16.714 22.954 34.273 25.992v-94.515c-15.195.675-34.78 13.502-34.78 28.86 0 14.178 6.078 23.63 24.144 31.9l-23.637 7.763zm84.418-42.532c-4.39-11.983-16.884-22.953-34.443-25.991v94.515c15.195-.675 34.95-13.502 34.95-28.86 0-14.178-6.079-23.63-24.144-31.9l23.637-7.764zM201.337 561.89c34.78 0 36.13 0 37.82-.169V431.087h-37.82V561.89zm95.899-67.51c0-31.394-13.338-52.828-39.677-60.255 0 20.76.17 95.36 0 124.558 28.027-8.438 39.677-33.418 39.677-64.304zm18.797 67.51h35.118v-91.14h-35.118v91.14zm-1.688-116.457c0 9.62 8.61 18.735 19.078 18.735 10.637 0 19.416-9.114 19.416-18.735 0-9.62-8.78-18.734-19.416-18.734-10.468 0-19.078 9.114-19.078 18.734zm53.746 25.317l22.286 91.14h31.572l-18.234-91.14h-35.624zm87.626 0h-29.21l-3.713 16.372 9.623 49.452 23.3-65.824zm16.94 91.14h35.117v-91.14h-35.118v91.14zm-1.689-116.457c0 9.62 8.61 18.735 19.079 18.735 10.636 0 19.416-9.114 19.416-18.735 0-9.62-8.78-18.734-19.416-18.734-10.468 0-19.079 9.114-19.079 18.734zm55.603 70.55c0 25.148 14.52 45.907 39.677 45.907v-91.14c-23.13 0-39.677 19.916-39.677 45.233zm90.665-84.896h-35.118V561.89h35.118V431.087zm106.592 78.145c-1.688-23.63-13.169-37.3-35.793-40.17v50.971l35.793-10.801zm-89.483 6.75c0 24.305 11.48 44.558 37.988 47.596v-94.516c-26.507 3.545-37.988 25.486-37.988 46.92zm88.639 22.448l-34.95-11.308.17 36.456c20.091-2.363 30.221-11.983 34.78-25.148zm14.238-22.447c0 25.148 14.52 45.907 39.677 45.907v-91.14c-23.13 0-39.677 19.916-39.677 45.233zm90.665-84.896H792.77V561.89h35.117V431.087z"/></g></g></svg>