<svg width="1315" height="707" viewBox="0 0 1315 707" xmlns="http://www.w3.org/2000/svg"><title>title-desktop</title><g fill="none" fill-rule="evenodd"><path d="M42.68 39L35.86.5h12.43c4.51.055 10.34 3.41 11.495 9.9l1.32 7.425c.11.66.165 1.32.165 1.925 0 5.115-3.96 7.81-7.975 7.975H50.6L52.58 39h-9.9zm6.16-21.175h2.365l-1.32-7.425H47.52l1.32 7.425zM68.53 39L61.71.5h12.43c4.455.055 10.175 3.135 11.33 9.075l.99 5.5c.055.33.11.66.11.99 0 1.485-.715 2.805-2.64 3.96 2.695 1.375 4.29 3.025 4.62 4.95l.99 5.555 2.09 2.75c.11.55.165 1.045.165 1.485C91.795 37.68 89.98 39 88 39h-2.53c-2.31 0-5.005-1.815-5.72-5.72l-1.43-8.305h-2.365L78.43 39h-9.9zm6.16-21.175h2.365l-1.32-7.425H73.37l1.32 7.425zM104.83 39c-4.565 0-10.505-3.355-11.66-9.9l-3.3-18.7c-.11-.66-.165-1.32-.165-1.925C89.705 3.195 93.94.5 98.01.5h2.2c4.565 0 10.505 3.355 11.66 9.9l3.3 18.7c.11.66.165 1.32.165 1.925 0 5.28-4.235 7.975-8.305 7.975h-2.2zm-1.76-9.9h2.2l-3.3-18.7h-2.2l3.3 18.7zm27.335 9.9c-4.565 0-10.505-3.355-11.66-9.9l-3.3-18.7c-.11-.66-.165-1.32-.165-1.925 0-5.28 4.235-7.975 8.305-7.975h2.2c4.565 0 10.505 3.355 11.66 9.9l.77 4.4h-9.9l-.77-4.4h-2.2l3.3 18.7h2.2l-.77-4.4h-1.1l-1.485-8.25h12.1l1.485 8.25h-1.1l.77 4.4c.11.66.165 1.32.165 1.925 0 5.28-4.235 7.975-8.305 7.975h-2.2zm16.885 0L140.47.5h12.43c4.455.055 10.175 3.135 11.33 9.075l.99 5.5c.055.33.11.66.11.99 0 1.485-.715 2.805-2.64 3.96 2.695 1.375 4.29 3.025 4.62 4.95l.99 5.555 2.09 2.75c.11.55.165 1.045.165 1.485 0 2.915-1.815 4.235-3.795 4.235h-2.53c-2.31 0-5.005-1.815-5.72-5.72l-1.43-8.305h-2.365L157.19 39h-9.9zm6.16-21.175h2.365l-1.32-7.425h-2.365l1.32 7.425zM174.24 39L167.42.5h20.845l1.76 9.9H179.08l.88 4.84h8.8l1.54 8.965h-8.8l.88 4.895h10.945l1.76 9.9H174.24zm33.66 0c-4.565 0-10.505-3.355-11.66-9.9l-.495-2.75h9.9l.495 2.75h2.2c-1.375-7.7-13.145-3.96-15.675-18.7-.11-.66-.165-1.32-.165-1.925 0-5.28 4.235-7.975 8.305-7.975h2.2c4.565 0 10.505 3.355 11.66 9.9l.55 3.135h-9.9l-.55-3.135h-2.2c1.21 6.93 13.145 4.4 15.675 18.7.11.66.165 1.32.165 1.925 0 5.28-4.235 7.975-8.305 7.975h-2.2zm24.53 0c-4.565 0-10.505-3.355-11.66-9.9l-.495-2.75h9.9l.495 2.75h2.2c-1.375-7.7-13.145-3.96-15.675-18.7-.11-.66-.165-1.32-.165-1.925 0-5.28 4.235-7.975 8.305-7.975h2.2c4.565 0 10.505 3.355 11.66 9.9l.55 3.135h-9.9l-.55-3.135h-2.2c1.21 6.93 13.145 4.4 15.675 18.7.11.66.165 1.32.165 1.925 0 5.28-4.235 7.975-8.305 7.975h-2.2zm15.84 0L241.45.5h9.9l6.82 38.5h-9.9zm19.03 0L254.65.5h10.45l7.425 27.775L270.16.5h10.45l.99 38.5h-14.3zm23.43 0L283.91.5h20.845l1.76 9.9H295.57l.88 4.84h8.8l1.54 8.965h-8.8l.88 4.895h10.945l1.76 9.9H290.73zm33.66 0c-4.565 0-10.505-3.355-11.66-9.9l-.495-2.75h9.9l.495 2.75h2.2c-1.375-7.7-13.145-3.96-15.675-18.7-.11-.66-.165-1.32-.165-1.925 0-5.28 4.235-7.975 8.305-7.975h2.2c4.565 0 10.505 3.355 11.66 9.9l.55 3.135h-9.9l-.55-3.135h-2.2c1.21 6.93 13.145 4.4 15.675 18.7.11.66.165 1.32.165 1.925 0 5.28-4.235 7.975-8.305 7.975h-2.2zm19.8 9.02c6.655 0 7.81-3.685 7.81-6.545 0-.99-.11-1.87-.22-2.475l-1.76-9.9h-10.45l1.76 9.9h4.95c.11.715.22 1.375.22 1.925 0 1.32-.605 2.145-3.19 2.145l.88 4.95zM.94 96l12.65-38.5h14.3L26.9 96H16.45l.66-7.7h-3.63L11.39 96H.94zm14.85-16.5h2.09l.934-11.275L15.79 79.5zM29.864 96h9.9l3.63-20.57L44.99 96h10.67l6.82-38.5h-9.9l-2.695 15.29L48.73 57.5H36.685L29.865 96zm35.03 0l5.06-28.6H64.18l1.76-9.9h21.45l-1.76 9.9h-5.775L74.795 96h-9.9zm19.136 0l6.82-38.5h9.9L93.93 96h-9.9zm23.81 0c-4.07 0-8.305-2.695-8.305-7.975 0-.605.055-1.265.165-1.925l3.3-18.7c1.155-6.545 7.095-9.9 11.66-9.9h2.2c4.07 0 8.305 2.695 8.305 7.975 0 .605-.055 1.265-.165 1.925l-.77 4.4h-9.9l.77-4.4h-2.2l-3.3 18.7h2.2l.77-4.4h9.9l-.77 4.4c-1.155 6.545-7.095 9.9-11.66 9.9h-2.2zm25.185 0c-4.07 0-8.305-2.695-8.305-7.975 0-.605.055-1.265.165-1.925l3.3-18.7c1.155-6.545 7.095-9.9 11.66-9.9h2.2c4.07 0 8.305 2.695 8.305 7.975 0 .605-.055 1.265-.165 1.925l-3.3 18.7c-1.155 6.545-7.095 9.9-11.66 9.9h-2.2zm1.76-9.9h2.2l3.3-18.7h-2.2l-3.3 18.7zm14.35 9.9l6.82-38.5h14.19l-1.21 19.91 5.886-19.91h14.135l-6.82 38.5h-9.9l4.235-23.925L169.212 96h-7.15l1.21-23.925L159.037 96h-9.9zm37.561 0l6.82-38.5h14.19l-1.21 19.91 5.885-19.91h14.135l-6.82 38.5h-9.9l4.235-23.925L206.772 96h-7.15l1.21-23.925L196.597 96h-9.9zm46.91 0c-4.07 0-8.304-2.695-8.304-7.975 0-.605.055-1.265.165-1.925l5.06-28.6h9.9l-5.06 28.6h2.2l5.06-28.6h9.9l-5.06 28.6c-1.155 6.545-7.095 9.9-11.66 9.9h-2.2zm16.111 0l6.82-38.5h12.045l1.155 15.29 2.695-15.29h9.9l-6.82 38.5h-10.67l-1.595-20.57-3.63 20.57h-9.9zm30.356 0l6.82-38.5h9.9l-6.82 38.5h-9.9zm23.865 0c-4.07 0-8.305-2.695-8.305-7.975 0-.605.055-1.265.165-1.925l.495-2.75h9.9l-.495 2.75h2.2c.055-.385.11-.77.11-1.1 0-5.665-9.57-4.015-9.57-13.97 0-1.045.165-2.255.385-3.63 1.155-6.545 7.095-9.9 11.66-9.9h2.2c4.07 0 8.305 2.695 8.305 7.975 0 .605-.055 1.265-.165 1.925l-.55 3.135h-9.9l.55-3.135h-2.2c-.055.33-.055.605-.055.88 0 5.28 9.46 4.4 9.46 14.355 0 .99-.11 2.145-.33 3.465-1.155 6.545-7.095 9.9-11.66 9.9h-2.2zm19.575 0l5.06-28.6H322.8l1.76-9.9h21.45l-1.76 9.9h-5.775l-5.06 28.6h-9.9zm27.99 0c-4.07 0-8.304-2.695-8.304-7.975 0-.605.055-1.265.165-1.925l.495-2.75h9.9l-.495 2.75h2.2c.055-.385.11-.77.11-1.1 0-5.665-9.57-4.015-9.57-13.97 0-1.045.165-2.255.385-3.63 1.155-6.545 7.095-9.9 11.66-9.9h2.2c4.07 0 8.305 2.695 8.305 7.975 0 .605-.055 1.265-.165 1.925l-.55 3.135h-9.9l.55-3.135h-2.2c-.055.33-.055.605-.055.88 0 5.28 9.46 4.4 9.46 14.355 0 .99-.11 2.145-.33 3.465-1.155 6.545-7.095 9.9-11.66 9.9h-2.2zm16.221 9.02l.88-4.95c3.685 0 4.015-1.705 4.4-4.07h-4.95l1.76-9.9h10.45l-1.76 9.9c-.385 2.31-1.815 9.02-10.78 9.02zM113.671 153l-6.82-38.5h12.43c4.455.055 10.175 3.135 11.33 9.075l.99 5.5c.055.33.11.66.11.99 0 1.485-.715 2.805-2.64 3.96 2.695 1.375 4.29 3.025 4.62 4.95l.99 5.555 2.09 2.75c.11.55.165 1.045.165 1.485 0 2.915-1.815 4.235-3.795 4.235h-2.53c-2.31 0-5.005-1.815-5.72-5.72l-1.43-8.305h-2.365L123.571 153h-9.9zm6.16-21.175h2.365l-1.32-7.425h-2.365l1.32 7.425zM138.581 153l-.99-38.5h14.3l12.65 38.5h-10.45l-2.09-7.7h-3.63l.66 7.7h-10.45zm9.02-16.5h2.09l-3.025-11.275.935 11.275zm28.65 16.5c-4.564 0-10.504-3.355-11.66-9.9l-3.3-18.7c-.11-.66-.164-1.32-.164-1.925 0-5.28 4.235-7.975 8.305-7.975h2.2c4.565 0 10.505 3.355 11.66 9.9l.77 4.4h-9.9l-.77-4.4h-2.2l3.3 18.7h2.2l-.77-4.4h9.9l.77 4.4c.11.66.165 1.32.165 1.925 0 5.28-4.235 7.975-8.305 7.975h-2.2zm15.561 0l-6.82-38.5h9.9l6.82 38.5h-9.9zm23.7 0c-4.564 0-10.504-3.355-11.66-9.9l-.494-2.75h9.9l.495 2.75h2.2c-1.375-7.7-13.145-3.96-15.675-18.7-.11-.66-.165-1.32-.165-1.925 0-5.28 4.235-7.975 8.305-7.975h2.2c4.565 0 10.505 3.355 11.66 9.9l.55 3.135h-9.9l-.55-3.135h-2.2c1.21 6.93 13.145 4.4 15.675 18.7.11.66.165 1.32.165 1.925 0 5.28-4.235 7.975-8.305 7.975h-2.2zm15.726 0l-6.82-38.5h14.19l5.83 19.91-1.155-19.91h14.135l6.82 38.5h-9.9l-4.235-23.925 1.21 23.925h-7.15l-7.26-23.925L241.138 153h-9.9zm41.52 9.02c6.656 0 7.81-3.685 7.81-6.545 0-.99-.11-1.87-.22-2.475l-1.76-9.9h-10.45l1.76 9.9h4.95c.11.715.22 1.375.22 1.925 0 1.32-.604 2.145-3.19 2.145l.88 4.95zM29.84 210c-4.07 0-8.305-2.695-8.305-7.975 0-.605.055-1.265.165-1.925.88-4.95 4.51-8.085 8.635-9.295-1.21-2.42-1.87-4.345-1.87-6.655 0-.88.11-1.76.275-2.75 1.155-6.545 7.095-9.9 11.66-9.9h2.2c4.07 0 8.305 2.695 8.305 7.975 0 .605-.055 1.265-.165 1.925-.99 5.665-5.61 8.965-9.79 9.735.495 1.1 1.155 2.2 1.87 3.245l6.545-5.555 3.85 4.675-6.16 5.225c1.265.88 2.475 1.54 3.795 1.925L49.2 210c-3.85 0-5.665-.385-9.02-3.355-2.365 2.2-5.5 3.355-8.14 3.355h-2.2zm7.755-22.77h2.2l1.21-6.6h-2.2l-1.21 6.6zm-6.49 13.97h4.18c-1.155-1.595-2.31-3.355-3.245-5.17l-.935 5.17zm34.09 8.8l12.65-38.5h14.3l-.99 38.5h-10.45l.66-7.7h-3.63l-2.09 7.7h-10.45zm14.85-16.5h2.09l.935-11.275-3.025 11.275zM94.121 210h9.9l3.63-20.57 1.595 20.57h10.67l6.82-38.5h-9.9l-2.695 15.29-1.155-15.29H100.94L94.12 210zm35.03 0l5.06-28.6h-5.775l1.76-9.9h21.45l-1.76 9.9h-5.775l-5.06 28.6h-9.9zm19.136 0l6.82-38.5h9.9l-6.82 38.5h-9.9zm23.865 0c-4.07 0-8.305-2.695-8.305-7.975 0-.605.055-1.265.165-1.925l.495-2.75h9.9l-.495 2.75h2.2c.055-.385.11-.77.11-1.1 0-5.665-9.57-4.015-9.57-13.97 0-1.045.165-2.255.385-3.63 1.155-6.545 7.095-9.9 11.66-9.9h2.2c4.07 0 8.305 2.695 8.305 7.975 0 .605-.055 1.265-.165 1.925l-.55 3.135h-9.9l.55-3.135h-2.2c-.055.33-.055.605-.055.88 0 5.28 9.46 4.4 9.46 14.355 0 .99-.11 2.145-.33 3.465-1.155 6.545-7.095 9.9-11.66 9.9h-2.2zm16 0l6.82-38.5h20.845l-1.76 9.9h-10.944l-.88 4.84h8.8l-1.54 8.965h-8.8l-.88 4.895h10.945l-1.76 9.9h-20.845zm24.58 0l6.82-38.5h14.19l-1.21 19.91 5.886-19.91h14.135l-6.82 38.5h-9.9l4.235-23.925-7.26 23.925h-7.15l1.21-23.925L222.633 210h-9.9zm37.561 0l6.82-38.5h9.9l-6.82 38.5h-9.9zm19.136 0l5.06-28.6h-5.775l1.76-9.9h21.45l-1.76 9.9h-5.775l-5.06 28.6h-9.9zm19.135 0l6.82-38.5h9.9l-6.82 38.5h-9.9zm23.866 0c-4.07 0-8.305-2.695-8.305-7.975 0-.605.055-1.265.165-1.925l.495-2.75h9.9l-.495 2.75h2.2c.055-.385.11-.77.11-1.1 0-5.665-9.57-4.015-9.57-13.97 0-1.045.165-2.255.385-3.63 1.155-6.545 7.095-9.9 11.66-9.9h2.2c4.07 0 8.305 2.695 8.305 7.975 0 .605-.055 1.265-.165 1.925l-.55 3.135h-9.9l.55-3.135h-2.2c-.055.33-.055.605-.055.88 0 5.28 9.46 4.4 9.46 14.355 0 .99-.11 2.145-.33 3.465-1.155 6.545-7.095 9.9-11.66 9.9h-2.2zm16 0l6.82-38.5h14.19l-1.21 19.91 5.885-19.91h14.135l-6.82 38.5h-9.9l4.235-23.925-7.26 23.925h-7.15l1.21-23.925L338.33 210h-9.9zM129.808 536l-.99-38.5h14.3l12.65 38.5h-10.45l-2.09-7.7h-3.63l.66 7.7h-10.45zm9.02-16.5h2.09l-3.025-11.275.934 11.275zm22.44 16.5l-5.06-28.6h-5.775l-1.76-9.9h21.45l1.76 9.9h-5.776l5.06 28.6h-9.9zm36.3 0h9.9l-5.06-28.6h5.775l-1.76-9.9h-21.45l1.76 9.9h5.774l5.06 28.6zm19.25 0l-6.82-38.5h9.9l2.695 15.125h3.575l-2.696-15.125h9.9l6.82 38.5h-9.9l-2.364-13.475h-3.576L226.718 536h-9.9zm28.05 0l-6.82-38.5h20.844l1.76 9.9h-10.944l.88 4.84h8.8l1.54 8.965h-8.8l.88 4.895h10.944l1.76 9.9h-20.844zM81.463 593c-4.07 0-8.305-2.695-8.305-7.975 0-.605.055-1.265.165-1.925l5.06-28.6h9.9l-5.06 28.6h2.2l5.06-28.6h9.9l-5.06 28.6c-1.155 6.545-7.095 9.9-11.66 9.9h-2.2zm16.225 0l6.82-38.5h12.044l1.155 15.29 2.696-15.29h9.9l-6.82 38.5h-10.67l-1.596-20.57-3.63 20.57h-9.9zm30.47 0l6.82-38.5h9.9l-6.82 38.5h-9.9zm19.03 0l.99-38.5h10.45l-2.365 27.775 7.424-27.775h10.45l-12.65 38.5h-14.3zm23.43 0l6.82-38.5h20.845l-1.76 9.9h-10.946l-.88 4.84h8.8l-1.54 8.965h-8.8l-.88 4.895h10.946l-1.76 9.9h-20.845zm24.695 0l6.82-38.5h12.43c4.014.055 8.14 2.75 8.14 7.92 0 .66-.055 1.32-.166 1.98l-.825 4.675c-.33 1.925-1.43 3.575-4.29 4.95 1.98 1.21 2.916 2.585 2.916 4.235 0 .22 0 .44-.055.715l-.99 5.555 1.21 2.75c-.715 3.905-3.41 5.72-5.72 5.72h-2.53c-1.98 0-3.795-1.32-3.795-4.235 0-.44.054-.935.165-1.485l1.43-8.305h-2.365L205.213 593h-9.9zm13.64-21.175h2.364l1.32-7.425h-2.364l-1.32 7.425zM231.722 593c-4.07 0-8.306-2.695-8.306-7.975 0-.605.055-1.265.166-1.925l.494-2.75h9.9l-.495 2.75h2.2c.056-.385.11-.77.11-1.1 0-5.665-9.57-4.015-9.57-13.97 0-1.045.165-2.255.385-3.63 1.155-6.545 7.095-9.9 11.66-9.9h2.2c4.07 0 8.305 2.695 8.305 7.975 0 .605-.054 1.265-.165 1.925l-.55 3.135h-9.9l.55-3.135h-2.2c-.055.33-.055.605-.055.88 0 5.28 9.46 4.4 9.46 14.355 0 .99-.11 2.145-.33 3.465-1.154 6.545-7.094 9.9-11.66 9.9h-2.2zm16.114 0l6.82-38.5h9.9l-6.82 38.5h-9.9zm19.25 0h9.9l5.06-28.6h5.775l1.76-9.9h-21.45l-1.76 9.9h5.775l-5.06 28.6zm26.236 0h9.9l2.584-14.575 12.87-23.925h-10.45l-5.5 13.145-.88-13.145h-10.45l4.51 23.925L293.324 593zM53.69 650c-4.07 0-8.305-2.695-8.305-7.975 0-.605.055-1.265.165-1.925l3.3-18.7c1.155-6.545 7.095-9.9 11.66-9.9h2.2c4.07 0 8.305 2.695 8.305 7.975 0 .605-.055 1.265-.165 1.925l-3.3 18.7c-1.155 6.545-7.095 9.9-11.66 9.9h-2.2zm1.76-9.9h2.2l3.3-18.7h-2.2l-3.3 18.7zm14.465 9.9l6.82-38.5H97.58l-1.76 9.9H84.875l-.99 5.5h9.9l-1.705 9.9h-9.9L79.815 650h-9.9zm36.795 0l6.82-38.5h14.19l-1.21 19.91 5.885-19.91h14.135l-6.82 38.5h-9.9l4.235-23.925-7.26 23.925h-7.15l1.21-23.925L116.61 650h-9.9zm37.675 0l6.82-38.5h9.9l-6.82 38.5h-9.9zm14.575 0l6.82-38.5h12.045l1.155 15.29 2.695-15.29h9.9l-6.82 38.5h-10.67l-1.595-20.57-3.63 20.57h-9.9zm30.47 0l6.82-38.5h12.045l1.155 15.29 2.695-15.29h9.9l-6.82 38.5h-10.67l-1.595-20.57-3.63 20.57h-9.9zm30.47 0l6.82-38.5h20.845l-1.76 9.9H234.86l-.88 4.84h8.8l-1.54 8.965h-8.8l-.88 4.895h10.945l-1.76 9.9H219.9zm33.825 0c-4.07 0-8.305-2.695-8.305-7.975 0-.605.055-1.265.165-1.925l.495-2.75h9.9l-.495 2.75h2.2c.055-.385.11-.77.11-1.1 0-5.665-9.57-4.015-9.57-13.97 0-1.045.165-2.255.385-3.63 1.155-6.545 7.095-9.9 11.66-9.9h2.2c4.07 0 8.305 2.695 8.305 7.975 0 .605-.055 1.265-.165 1.925l-.55 3.135h-9.9l.55-3.135h-2.2c-.055.33-.055.605-.055.88 0 5.28 9.46 4.4 9.46 14.355 0 .99-.11 2.145-.33 3.465-1.155 6.545-7.095 9.9-11.66 9.9h-2.2zm25.465 0c-4.07 0-8.305-2.695-8.305-7.975 0-.605.055-1.265.165-1.925l3.3-18.7c1.155-6.545 7.095-9.9 11.66-9.9h2.2c4.07 0 8.305 2.695 8.305 7.975 0 .605-.055 1.265-.165 1.925l-3.3 18.7c-1.155 6.545-7.095 9.9-11.66 9.9h-2.2zm1.76-9.9h2.2l3.3-18.7h-2.2l-3.3 18.7zm18.865 9.9l5.06-28.6H299.1l1.76-9.9h21.45l-1.76 9.9h-5.775l-5.06 28.6h-9.9zm15.4 0l12.65-38.5h14.3l-.99 38.5h-10.45l.66-7.7h-3.63l-2.09 7.7h-10.45zm14.85-16.5h2.09l.935-11.275-3.025 11.275zM101.998 707l-6.82-38.5h9.9l6.82 38.5h-9.9zm23.81 0c-4.564 0-10.504-3.355-11.66-9.9h12.1l-.88-4.95h-2.2c-4.564 0-10.504-3.355-11.66-9.9l-.66-3.85c-.11-.66-.164-1.32-.164-1.925 0-5.28 4.235-7.975 8.305-7.975h2.2c4.565 0 10.505 3.355 11.66 9.9l3.3 18.7c.11.66.165 1.32.165 1.925 0 5.28-4.235 7.975-8.305 7.975h-2.2zm-4.4-24.75h2.2l-.66-3.85h-2.2l.66 3.85zM150.335 707c-4.565 0-10.505-3.355-11.66-9.9h12.1l-.77-4.4-8.525-2.2-1.1-6.05h8.14l-1.045-6.05h-12.1c-.11-.66-.165-1.32-.165-1.925 0-5.28 4.235-7.975 8.305-7.975h2.2c4.565 0 10.505 3.355 11.66 9.9l.77 4.4c.055.33.11.66.11.99 0 1.54-.715 2.805-2.64 3.96 2.805 1.375 3.96 3.025 4.29 4.95l.77 4.4c.11.66.165 1.32.165 1.925 0 5.28-4.235 7.975-8.305 7.975h-2.2zm25.46 0c-4.565 0-10.505-3.355-11.66-9.9l-3.3-18.7c-.11-.66-.165-1.32-.165-1.925 0-5.28 4.235-7.975 8.305-7.975h2.2c4.565 0 10.505 3.355 11.66 9.9l3.3 18.7c.11.66.165 1.32.165 1.925 0 5.28-4.235 7.975-8.305 7.975h-2.2zm-1.76-9.9h2.2l-3.3-18.7h-2.2l3.3 18.7zm16.44-4.4h8.8l-1.76-9.9h-8.8l1.76 9.9zm16.991 14.3l-6.82-38.5h9.9l6.82 38.5h-9.9zm23.81 0c-4.564 0-10.504-3.355-11.66-9.9h12.1l-.88-4.95h-2.2c-4.564 0-10.504-3.355-11.66-9.9l-.66-3.85c-.11-.66-.164-1.32-.164-1.925 0-5.28 4.235-7.975 8.305-7.975h2.2c4.565 0 10.505 3.355 11.66 9.9l3.3 18.7c.11.66.165 1.32.165 1.925 0 5.28-4.235 7.975-8.305 7.975h-2.2zm-4.4-24.75h2.2l-.66-3.85h-2.2l.66 3.85zM258.497 707l-1.76-9.955h-12.21l-1.54-8.8 2.86-19.745h7.975l-1.815 19.745h3.19l-1.76-9.845h9.9l1.76 9.845h2.75l1.54 8.8h-2.75l1.76 9.955h-9.9zm15.56 0l-2.53-14.19c-.11-.66-.165-1.32-.165-1.925 0-5.28 4.235-7.975 8.305-7.975h2.475l-.77-4.51h-12.1c-.11-.66-.165-1.32-.165-1.925 0-5.28 4.235-7.975 8.305-7.975h2.2c4.565 0 10.505 3.355 11.66 9.9l.77 4.51c.11.66.165 1.32.165 1.925 0 5.28-4.235 7.975-8.305 7.975h-2.475l.77 4.29h10.945l1.76 9.9h-20.845z" fill="#EABA9D"/><g fill="#FFF"><path d="M295.32 440H241.8l-35.28-186h50.64l38.16 186zm-143.04 0l37.92-129.6L214.92 440h-62.64zm215.44-92.4c0 47.28 14.88 86.4 59.28 94.08V252.8c-44.4 7.92-59.28 46.8-59.28 94.8zm140.16-37.2c-3.12-28.8-22.08-54.24-54.72-57.6v74.64l54.72-17.04zm0 74.16l-54.72-17.04v73.68c32.88-3.36 51.6-27.6 54.72-56.64zM521.64 404c0 22.8 19.2 36 47.04 36H579v-72.24h-10.32c-27.84 0-47.04 13.44-47.04 36.24zM579 359.36V308c-28.8 1.2-46.08 16.8-52.32 35.04L579 359.36zM651.48 440v-91.68c0-29.76-24.72-40.32-44.88-40.32h-4.8v132h49.68zm29.6 0H731V310.4h-49.92V440zM803 440v-89.28c0-29.76-24.72-40.32-44.88-40.32h-4.8V440H803zm71.28 0v-89.28c0-29.76-24.72-40.32-44.88-40.32h-4.8V440h49.68zm158.48-64.32c0-35.76-20.64-65.28-56.64-65.28V440c33.12 0 56.64-28.32 56.64-64.32zM903.88 494h49.92V310.4h-49.92V494zM1179 310.4h-49.92V440H1179V310.4zm-121.92 0v89.28c0 29.76 24.72 40.32 44.88 40.32h4.8V310.4h-49.68zm146.96 95.04c6.24 17.04 23.76 32.64 48.72 36.96V308c-21.6.96-49.44 19.2-49.44 41.04 0 20.16 8.64 33.6 34.32 45.36l-33.6 11.04zm120-60.48c-6.24-17.04-24-32.64-48.96-36.96v134.4c21.6-.96 49.68-19.2 49.68-41.04 0-20.16-8.64-33.6-34.32-45.36l33.6-11.04zM438.2 650c49.44 0 51.36 0 53.76-.24V464H438.2v186zm136.32-96c0-44.64-18.96-75.12-56.4-85.68 0 29.52.24 135.6 0 177.12 39.84-12 56.4-47.52 56.4-91.44zm26.72 96h49.92V520.4h-49.92V650zm-2.4-165.6c0 13.68 12.24 26.64 27.12 26.64 15.12 0 27.6-12.96 27.6-26.64s-12.48-26.64-27.6-26.64c-14.88 0-27.12 12.96-27.12 26.64zm76.4 36L706.92 650h44.88l-25.92-129.6h-50.64zm124.56 0h-41.52L753 543.68 766.68 614l33.12-93.6zM823.88 650h49.92V520.4h-49.92V650zm-2.4-165.6c0 13.68 12.24 26.64 27.12 26.64 15.12 0 27.6-12.96 27.6-26.64s-12.48-26.64-27.6-26.64c-14.88 0-27.12 12.96-27.12 26.64zm79.04 100.32c0 35.76 20.64 65.28 56.4 65.28V520.4c-32.88 0-56.4 28.32-56.4 64.32zM1029.4 464h-49.92v186h49.92V464zm151.52 111.12c-2.4-33.6-18.72-53.04-50.88-57.12v72.48l50.88-15.36zm-127.2 9.6c0 34.56 16.32 63.36 54 67.68V518c-37.68 5.04-54 36.24-54 66.72zm126 31.92l-49.68-16.08.24 51.84c28.56-3.36 42.96-17.04 49.44-35.76zm20.24-31.92c0 35.76 20.64 65.28 56.4 65.28V520.4c-32.88 0-56.4 28.32-56.4 64.32zM1328.84 464h-49.92v186h49.92V464z"/></g></g></svg>